<svg xmlns="http://www.w3.org/2000/svg" viewBox="0 0 80 80">
  <!-- AWS VPC Official Icon -->
  <defs>
    <linearGradient id="vpc-grad" x1="0%" y1="0%" x2="100%" y2="100%">
      <stop offset="0%" style="stop-color:#8B62D9;stop-opacity:1" />
      <stop offset="100%" style="stop-color:#6B46B8;stop-opacity:1" />
    </linearGradient>
  </defs>
  <rect fill="url(#vpc-grad)" width="80" height="80" rx="4"/>
  <!-- Network cloud icon -->
  <g fill="#FFFFFF">
    <path d="M 30 35 C 30 30 34 26 39 26 C 42 26 44 28 45 30 C 47 28 50 27 53 28 C 57 29 60 33 60 37 C 60 38 60 39 59 40 C 62 41 64 44 64 47 C 64 51 61 54 57 54 L 28 54 C 24 54 21 51 21 47 C 21 44 23 41 26 40 C 25 39 25 38 25 37 C 25 34 27 32 30 31 Z"/>
    <path d="M 25 50 L 35 58 M 40 50 L 40 58 M 55 50 L 45 58" stroke="#FFFFFF" stroke-width="2" stroke-linecap="round"/>
  </g>
</svg>
