<svg xmlns="http://www.w3.org/2000/svg" viewBox="0 0 80 80">
  <!-- GCP Logo Icon -->
  <defs>
    <linearGradient id="gcp-logo-grad" x1="0%" y1="0%" x2="100%" y2="100%">
      <stop offset="0%" style="stop-color:#4285F4;stop-opacity:1" />
      <stop offset="100%" style="stop-color:#3367D6;stop-opacity:1" />
    </linearGradient>
  </defs>
  <rect fill="url(#gcp-logo-grad)" width="80" height="80" rx="4"/>
  <!-- GCP cloud hexagon -->
  <g fill="#FFFFFF">
    <path d="M 40 15 L 55 23 L 55 40 L 40 48 L 25 40 L 25 23 Z" stroke="#FFFFFF" stroke-width="2" fill="none"/>
    <path d="M 30 35 C 30 32 32 30 35 30 C 37 30 38 31 39 32 C 40 31 42 30 44 31 C 46 32 47 34 47 36 C 47 37 47 37 47 38 C 49 38 50 40 50 42 C 50 44 48 46 46 46 L 32 46 C 30 46 28 44 28 42 C 28 40 29 38 31 38 C 31 37 31 37 31 36 C 31 35 30 34 30 34 Z"/>
    <text x="40" y="64" font-family="Arial, sans-serif" font-size="12" font-weight="bold" text-anchor="middle" fill="#FFFFFF">GCP</text>
  </g>
</svg>
