<svg xmlns="http://www.w3.org/2000/svg" viewBox="0 0 80 80">
  <!-- GCP VPC Official Icon -->
  <defs>
    <linearGradient id="gcp-vpc-grad" x1="0%" y1="0%" x2="100%" y2="100%">
      <stop offset="0%" style="stop-color:#0F9D58;stop-opacity:1" />
      <stop offset="100%" style="stop-color:#0D7D45;stop-opacity:1" />
    </linearGradient>
  </defs>
  <rect fill="url(#gcp-vpc-grad)" width="80" height="80" rx="4"/>
  <!-- Network cloud -->
  <g fill="#FFFFFF">
    <path d="M 32 36 C 32 32 35 29 39 29 C 41 29 43 30 44 32 C 46 30 49 29 52 30 C 55 31 57 34 57 37 C 57 38 57 39 56 40 C 59 41 61 43 61 46 C 61 49 58 52 55 52 L 30 52 C 27 52 24 49 24 46 C 24 43 26 41 29 40 C 28 39 28 38 28 37 C 28 35 30 33 32 32 Z"/>
    <path d="M 26 48 L 34 55 M 40 48 L 40 55 M 54 48 L 46 55" stroke="#FFFFFF" stroke-width="2" stroke-linecap="round"/>
  </g>
</svg>
